<svg xmlns="http://www.w3.org/2000/svg" viewBox="0 0 1600 600" role="img" aria-labelledby="title desc">
<title id="title">ASOBI CREATE PARK hero illustration</title>
<desc id="desc">企画する人、支援する人、公開されるあそびが循環する様子</desc>
<defs>
  <linearGradient id="sky" x1="0" y1="0" x2="1" y2="1"><stop offset="0" stop-color="#dff5ff"/><stop offset="0.55" stop-color="#eefbe7"/><stop offset="1" stop-color="#fff1cf"/></linearGradient>
  <linearGradient id="grass" x1="0" y1="0" x2="0" y2="1"><stop offset="0" stop-color="#9bd877"/><stop offset="1" stop-color="#56b96b"/></linearGradient>
  <filter id="shadow" x="-20%" y="-20%" width="140%" height="140%"><feDropShadow dx="0" dy="14" stdDeviation="14" flood-color="#1a1a2e" flood-opacity="0.18"/></filter>
  <filter id="soft" x="-30%" y="-30%" width="160%" height="160%"><feGaussianBlur stdDeviation="16"/></filter>
</defs>
<rect width="1600" height="600" rx="44" fill="url(#sky)"/>
<g opacity="0.28" fill="#5aa9dd">
  <rect x="1010" y="145" width="58" height="200" rx="5"/><rect x="1085" y="100" width="68" height="245" rx="6"/><rect x="1172" y="170" width="60" height="175" rx="5"/><rect x="1252" y="70" width="76" height="275" rx="6"/><rect x="1350" y="160" width="66" height="185" rx="5"/>
  <rect x="610" y="185" width="55" height="150" rx="5"/><rect x="682" y="150" width="68" height="185" rx="5"/><rect x="770" y="190" width="55" height="145" rx="5"/>
</g>
<g fill="#fff" opacity="0.95">
  <ellipse cx="160" cy="74" rx="68" ry="22"/><circle cx="125" cy="62" r="30"/><circle cx="180" cy="55" r="40"/>
  <ellipse cx="470" cy="92" rx="70" ry="23"/><circle cx="435" cy="77" r="32"/><circle cx="492" cy="70" r="41"/>
  <ellipse cx="930" cy="64" rx="58" ry="19"/><circle cx="900" cy="53" r="27"/><circle cx="950" cy="47" r="34"/>
</g>
<path d="M-70 538 C160 415 380 438 560 500 C750 565 875 545 1030 474 C1225 386 1390 418 1670 510 L1670 650 L-70 650 Z" fill="url(#grass)"/>
<path d="M620 575 C780 455 930 430 1180 420" stroke="#ffe0a6" stroke-width="54" stroke-linecap="round" fill="none" opacity="0.85"/>
<path d="M620 575 C780 455 930 430 1180 420" stroke="#f8c477" stroke-width="4" stroke-dasharray="12 18" fill="none" opacity="0.45"/>
<g transform="translate(58 75)">
  <rect x="88" y="186" width="28" height="245" rx="9" fill="#9a693e"/>
  <circle cx="74" cy="168" r="56" fill="#82c766"/><circle cx="125" cy="142" r="62" fill="#a7d66e"/><circle cx="158" cy="190" r="56" fill="#8fca5f"/><circle cx="56" cy="215" r="48" fill="#72bd66"/><circle cx="118" cy="228" r="62" fill="#98d36d"/>
  <g fill="#fff6b8" opacity="0.95"><circle cx="82" cy="158" r="7"/><circle cx="145" cy="174" r="6"/><circle cx="100" cy="218" r="6"/><circle cx="157" cy="224" r="7"/></g>
</g>
<g transform="translate(1335 18)">
  <path d="M0 45 C72 0 148 2 240 38" fill="none" stroke="#f3b15f" stroke-width="5"/>
  <path d="M36 39 L67 49 L41 74 Z" fill="#ffd84d"/><path d="M87 26 L120 37 L94 66 Z" fill="#60b76b"/><path d="M140 25 L174 36 L148 68 Z" fill="#ff7b4d"/><path d="M195 39 L228 51 L202 78 Z" fill="#2f80ed"/>
</g>
<g fill="none" stroke-linecap="round" stroke-linejoin="round">
  <path d="M445 376 C530 110 860 54 1018 152" stroke="#71be6c" stroke-width="24" opacity="0.78"/>
  <path d="M1009 151 l-58 -8 l33 -47" stroke="#71be6c" stroke-width="24" opacity="0.78"/>
  <path d="M1035 210 C895 315 710 330 565 250" stroke="#ff8a3d" stroke-width="24" opacity="0.86"/>
  <path d="M568 250 l60 -20 l-22 56" stroke="#ff8a3d" stroke-width="24" opacity="0.86"/>
  <path d="M420 355 C455 462 540 520 655 535" stroke="#5eb0eb" stroke-width="24" opacity="0.82"/>
  <path d="M657 536 l-49 -35 l59 -18" stroke="#5eb0eb" stroke-width="24" opacity="0.82"/>
</g>
<g transform="translate(245 140)" filter="url(#shadow)">
  <circle cx="150" cy="126" r="142" fill="#fff8cd" opacity="0.72"/>
  <g transform="translate(72 68)">
    <circle cx="64" cy="50" r="43" fill="#ffd7b4"/>
    <path d="M25 48 C25 10 56 -10 91 10 C118 23 123 56 104 81 C91 43 61 33 25 48 Z" fill="#5b3626"/>
    <circle cx="96" cy="8" r="27" fill="#5b3626"/>
    <circle cx="50" cy="50" r="4" fill="#1a1a2e"/><circle cx="78" cy="50" r="4" fill="#1a1a2e"/>
    <path d="M51 71 Q66 84 82 70" stroke="#7d3b2f" stroke-width="4" fill="none" stroke-linecap="round"/>
    <path d="M8 116 C24 82 107 78 126 116 L154 245 L-4 245 Z" fill="#f4b83e"/>
    <path d="M39 115 L61 170 M100 116 L82 170" stroke="#d59223" stroke-width="7" stroke-linecap="round"/>
    <rect x="105" y="130" width="118" height="104" rx="14" fill="#fff" stroke="#8a734a" stroke-width="4" transform="rotate(-6 164 182)"/>
    <text x="128" y="158" font-size="18" font-weight="700" fill="#6a573c" transform="rotate(-6 128 158)">アイデアメモ</text>
    <text x="130" y="187" font-size="14" fill="#6a573c" transform="rotate(-6 130 187)">☑ 公園ピクニック</text>
    <text x="132" y="211" font-size="14" fill="#6a573c" transform="rotate(-6 132 211)">☑ 子ども制作</text>
  </g>
</g>
<g transform="translate(1088 86)" filter="url(#shadow)">
  <circle cx="130" cy="112" r="130" fill="#fff0bd" opacity="0.72"/>
  <g transform="translate(56 42)">
    <circle cx="70" cy="58" r="43" fill="#ffd7b4"/>
    <path d="M29 47 C36 10 78 -8 113 20 L111 39 C78 29 55 30 29 47 Z" fill="#304b28"/>
    <path d="M40 4 C76 -18 127 -1 142 34 C107 32 72 30 35 42 Z" fill="#52764a"/>
    <circle cx="57" cy="58" r="4" fill="#1a1a2e"/><circle cx="87" cy="58" r="4" fill="#1a1a2e"/>
    <path d="M58 80 Q73 93 92 78" stroke="#7d3b2f" stroke-width="4" fill="none" stroke-linecap="round"/>
    <path d="M17 126 C35 92 116 88 139 126 L158 257 L-8 257 Z" fill="#78b879"/>
    <path d="M44 126 L28 220 M113 126 L132 220" stroke="#4e8a56" stroke-width="8" stroke-linecap="round"/>
    <rect x="10" y="164" width="110" height="78" rx="12" fill="#7b8b8f" stroke="#4d5b5d" stroke-width="4" transform="rotate(7 65 203)"/>
    <circle cx="63" cy="203" r="12" fill="#ffd34e" transform="rotate(7 63 203)"/>
    <path d="M136 116 C161 110 174 89 184 62" stroke="#ffd7b4" stroke-width="16" stroke-linecap="round" fill="none"/>
    <path d="M181 62 L197 34" stroke="#ffd7b4" stroke-width="16" stroke-linecap="round"/>
  </g>
</g>
<g transform="translate(34 355)" filter="url(#shadow)">
  <rect width="300" height="138" rx="28" fill="#fff" stroke="#52b66d" stroke-width="4"/>
  <text x="44" y="60" font-size="34" font-weight="900" fill="#16894f">🌱 企画する</text>
  <text x="66" y="98" font-size="24" font-weight="700" fill="#111936">アイデアを考える・</text>
  <text x="102" y="128" font-size="24" font-weight="700" fill="#111936">まとめる</text>
</g>
<g transform="translate(1232 76)" filter="url(#shadow)">
  <rect width="310" height="132" rx="28" fill="#fff" stroke="#ff7a35" stroke-width="4"/>
  <text x="48" y="60" font-size="36" font-weight="900" fill="#f25c1d">💞 支援する</text>
  <text x="58" y="98" font-size="24" font-weight="700" fill="#111936">想いに共感する</text>
  <text x="58" y="126" font-size="24" font-weight="700" fill="#111936">アイデアを支える</text>
</g>
<g transform="translate(600 426)" filter="url(#shadow)">
  <rect width="445" height="122" rx="28" fill="#fff" stroke="#2377d6" stroke-width="4"/>
  <text x="42" y="54" font-size="34" font-weight="900" fill="#2377d6">🌐 公開する<tspan font-size="23">（一般ユーザーへ）</tspan></text>
  <text x="78" y="94" font-size="24" font-weight="700" fill="#111936">企画と支援がそろったら、</text>
  <text x="98" y="124" font-size="24" font-weight="700" fill="#111936">地域のみんなにひらかれる</text>
</g>
<g transform="translate(1160 345)">
  <g transform="translate(0 28)"><circle cx="34" cy="34" r="28" fill="#ffd7b4"/><path d="M8 30 C15 5 49 0 63 23" fill="#4d3428"/><rect x="5" y="60" width="60" height="78" rx="18" fill="#ff884d"/></g>
  <g transform="translate(70 10)"><circle cx="34" cy="34" r="28" fill="#ffd7b4"/><path d="M10 20 C23 0 58 4 66 30" fill="#334f7b"/><rect x="5" y="60" width="60" height="92" rx="18" fill="#2f80ed"/></g>
  <g transform="translate(140 36)"><circle cx="34" cy="34" r="28" fill="#ffd7b4"/><path d="M9 28 C20 5 54 4 65 29" fill="#4d3428"/><rect x="5" y="60" width="60" height="76" rx="18" fill="#ffd34e"/></g>
</g>
<g transform="translate(1350 348)" filter="url(#shadow)">
  <path d="M0 40 L90 0 L180 40 L180 172 L0 172 Z" fill="#4da4d9"/>
  <path d="M0 40 L90 0 L180 40" fill="none" stroke="#1f78b4" stroke-width="8"/>
  <rect x="16" y="80" width="148" height="92" fill="#d7f1ff" opacity="0.45"/>
</g>
<g transform="translate(1438 430)" filter="url(#shadow)">
  <rect width="118" height="128" rx="12" fill="#735231"/>
  <rect x="12" y="14" width="94" height="94" rx="6" fill="#2e6d46"/>
  <text x="26" y="45" font-size="20" font-weight="700" fill="#fff6cb">みんなの</text>
  <text x="22" y="74" font-size="20" font-weight="700" fill="#fff6cb">アイデアで</text>
  <text x="30" y="103" font-size="18" font-weight="700" fill="#fff6cb">もっと楽しく!</text>
</g>
<g fill="#fff7a8" opacity="0.9"><circle cx="90" cy="540" r="11"/><circle cx="150" cy="565" r="9"/><circle cx="230" cy="535" r="8"/><circle cx="320" cy="560" r="10"/></g>
<g fill="#ff9c48" opacity="0.9"><circle cx="112" cy="565" r="12"/><circle cx="274" cy="548" r="10"/></g>
<g fill="#5aa7e8" opacity="0.9"><circle cx="198" cy="570" r="10"/><circle cx="360" cy="535" r="8"/></g>
</svg>